<?xml version="1.0" encoding="UTF-8" standalone="no"?>
<!-- Created with Inkscape (http://www.inkscape.org/) -->

<svg
   xmlns:dc="http://purl.org/dc/elements/1.1/"
   xmlns:cc="http://creativecommons.org/ns#"
   xmlns:rdf="http://www.w3.org/1999/02/22-rdf-syntax-ns#"
   xmlns:svg="http://www.w3.org/2000/svg"
   xmlns="http://www.w3.org/2000/svg"
   xmlns:sodipodi="http://sodipodi.sourceforge.net/DTD/sodipodi-0.dtd"
   xmlns:inkscape="http://www.inkscape.org/namespaces/inkscape"
   width="256"
   height="256"
   id="svg2"
   version="1.1"
   inkscape:version="0.48.3.1 r9886"
   sodipodi:docname="New document 1">
  <defs
     id="defs4" />
  <sodipodi:namedview
     id="base"
     pagecolor="#ffffff"
     bordercolor="#666666"
     borderopacity="1.0"
     inkscape:pageopacity="0.0"
     inkscape:pageshadow="2"
     inkscape:zoom="1.4"
     inkscape:cx="179.55138"
     inkscape:cy="175.48237"
     inkscape:document-units="px"
     inkscape:current-layer="layer1"
     showgrid="false"
     inkscape:window-width="1680"
     inkscape:window-height="1030"
     inkscape:window-x="1598"
     inkscape:window-y="-3"
     inkscape:window-maximized="1" />
  <metadata
     id="metadata7">
    <rdf:RDF>
      <cc:Work
         rdf:about="">
        <dc:format>image/svg+xml</dc:format>
        <dc:type
           rdf:resource="http://purl.org/dc/dcmitype/StillImage" />
        <dc:title></dc:title>
      </cc:Work>
    </rdf:RDF>
  </metadata>
  <g
     inkscape:label="Layer 1"
     inkscape:groupmode="layer"
     id="layer1"
     transform="translate(0,-796.36218)">
    <path
       sodipodi:type="arc"
       style="fill:#ff0000;fill-rule:evenodd;stroke:#000000;stroke-width:1px;stroke-linecap:butt;stroke-linejoin:miter;stroke-opacity:1"
       id="path2985"
       sodipodi:cx="126.78571"
       sodipodi:cy="127.78571"
       sodipodi:rx="127.5"
       sodipodi:ry="127.5"
       d="m 254.28571,127.78571 a 127.5,127.5 0 1 1 -254.9999968,0 127.5,127.5 0 1 1 254.9999968,0 z"
       transform="translate(0,796.36218)" />
    <path
       style="fill:#000000;fill-opacity:1;fill-rule:nonzero;stroke:none"
       id="path2989"
       d="m 127.51737,-1.3749278 c -0.33812,2.15474901 -0.48726,4.3330332 -0.59009,6.5098556 -0.0796,1.7646017 -0.0843,3.5309388 -0.0833,5.2969232 0.004,1.491138 0.008,2.982273 0.0107,4.473414 0.002,1.427265 0.002,2.85453 0.002,4.281795 7e-5,1.427512 1e-5,2.855024 -2e-5,4.282537 -3e-5,1.428524 -3e-5,2.857049 -4e-5,4.285574 0,1.428585 0,2.85717 0,4.285755 0.14207,1.420088 0.41679,2.820634 0.56184,4.241736 0.12812,1.438575 0.14275,2.883694 0.15399,4.326893 0.006,1.429669 0.003,2.859358 9.3e-4,4.289034 -0.002,1.428424 -0.002,2.85685 -0.002,4.285275 -2e-4,1.428545 -1.7e-4,2.85709 -1.6e-4,4.285635 -0.0809,1.421287 0.0479,2.809522 0.28201,4.207973 0.25612,1.436533 0.34751,2.892791 0.40105,4.348572 -0.0425,1.316358 0.061,2.591867 0.31956,3.87921 0.27353,1.31661 0.34834,2.660191 0.39714,4.000344 0.038,1.424278 0.0341,2.849242 0.0335,4.2739 -0.002,1.429869 -0.003,2.859738 -0.004,4.289608 -6.8e-4,1.428717 -7.2e-4,2.857435 -7.7e-4,4.286152 -1e-5,1.428561 1e-5,2.857121 2e-5,4.285681 0.14208,1.420083 0.4168,2.820625 0.56184,4.241722 0.12813,1.438576 0.14276,2.883695 0.154,4.326894 -0.0289,1.425968 0.3076,2.823762 0.48854,4.232052 0.16959,1.439293 0.20001,2.889333 0.22029,4.336853 0.0566,1.37814 -0.0762,2.76638 0.0663,4.13932 0.27013,1.24437 0.45556,2.49824 0.55785,3.76695 0.0912,1.40997 0.0935,2.82362 0.0983,4.23593 0.0307,1.41135 -0.0648,2.82727 0.0536,4.23491 0.24979,1.42958 0.44923,2.86319 0.55939,4.31031 0,0 -9.39466,4.86819 -9.39466,4.86819 l 0,0 c -0.0872,-1.43239 -0.24988,-2.8562 -0.53453,-4.26418 -0.21278,-1.43688 -0.0751,-2.89353 -0.11097,-4.34289 -0.002,-1.38859 -7.2e-4,-2.77811 -0.0715,-4.1653 -0.0826,-1.24941 -0.23479,-2.48903 -0.5336,-3.70751 -0.22415,-1.40685 -0.0584,-2.84073 -0.11284,-4.26122 -0.0121,-1.41259 -0.0269,-2.82756 -0.16624,-4.23458 -0.16485,-1.44975 -0.52498,-2.88071 -0.54518,-4.33937 -0.006,-1.41529 -0.0104,-2.832087 -0.11086,-4.244538 -0.12489,-1.455175 -0.36702,-2.890048 -0.60784,-4.329683 -10e-6,-1.42857 -3e-5,-2.857141 -3e-5,-4.285711 3e-5,-1.428886 4e-5,-2.857772 5.9e-4,-4.286658 6.9e-4,-1.42991 0.002,-2.859819 0.004,-4.289728 0.001,-1.413705 0.006,-2.82759 -0.0215,-4.241102 -0.0356,-1.2836 -0.0834,-2.572613 -0.32939,-3.836642 -0.27143,-1.344906 -0.4754,-2.664317 -0.3838,-4.045288 -0.0373,-1.412212 -0.0982,-2.827141 -0.3334,-4.222857 -0.24517,-1.451981 -0.4834,-2.882285 -0.36497,-4.363455 -10e-6,-1.428598 -4e-5,-2.857196 8e-5,-4.285794 1.9e-4,-1.428718 4.7e-4,-2.857436 0.002,-4.286153 0.002,-1.427464 0.005,-2.85493 0.002,-4.282395 -0.006,-1.415286 -0.0104,-2.832083 -0.11085,-4.244534 -0.12489,-1.455181 -0.36703,-2.89006 -0.60784,-4.329703 0,-1.428586 0,-2.857172 0,-4.285758 1e-5,-1.428522 1e-5,-2.857044 1e-5,-4.285565 -1e-5,-1.427447 -1e-5,-2.854894 -1.2e-4,-4.282341 -1.4e-4,-1.427192 -3.9e-4,-2.854383 -8e-4,-4.281575 -2.9e-4,-1.494899 -0.001,-2.989805 0.004,-4.484697 0.009,-1.78528 0.0119,-3.571631 0.087,-5.355547 0.11634,-2.1894197 0.30643,-4.3727396 0.50687,-6.5558862 0,0 9.49134,-4.6883376 9.49134,-4.6883376 z"
       inkscape:connector-curvature="0"
       transform="translate(0,796.36218)" />
  </g>
</svg>
