<?xml version="1.0" encoding="UTF-8" standalone="no"?>
<!-- Created with Inkscape (http://www.inkscape.org/) -->

<svg
   xmlns:dc="http://purl.org/dc/elements/1.1/"
   xmlns:cc="http://creativecommons.org/ns#"
   xmlns:rdf="http://www.w3.org/1999/02/22-rdf-syntax-ns#"
   xmlns:svg="http://www.w3.org/2000/svg"
   xmlns="http://www.w3.org/2000/svg"
   xmlns:sodipodi="http://sodipodi.sourceforge.net/DTD/sodipodi-0.dtd"
   xmlns:inkscape="http://www.inkscape.org/namespaces/inkscape"
   width="256"
   height="256"
   id="svg2"
   version="1.1"
   inkscape:version="0.48.3.1 r9886"
   sodipodi:docname="ball.svg"
   inkscape:export-filename="ball.png"
   inkscape:export-xdpi="90"
   inkscape:export-ydpi="90">
  <defs
     id="defs4" />
  <sodipodi:namedview
     id="base"
     pagecolor="#ffffff"
     bordercolor="#666666"
     borderopacity="1.0"
     inkscape:pageopacity="0.0"
     inkscape:pageshadow="2"
     inkscape:zoom="1.4"
     inkscape:cx="179.55138"
     inkscape:cy="175.48237"
     inkscape:document-units="px"
     inkscape:current-layer="layer1"
     showgrid="false"
     inkscape:window-width="1680"
     inkscape:window-height="1030"
     inkscape:window-x="1598"
     inkscape:window-y="-3"
     inkscape:window-maximized="1" />
  <metadata
     id="metadata7">
    <rdf:RDF>
      <cc:Work
         rdf:about="">
        <dc:format>image/svg+xml</dc:format>
        <dc:type
           rdf:resource="http://purl.org/dc/dcmitype/StillImage" />
        <dc:title></dc:title>
      </cc:Work>
    </rdf:RDF>
  </metadata>
  <g
     inkscape:label="Layer 1"
     inkscape:groupmode="layer"
     id="layer1"
     transform="translate(0,-796.36218)">
    <rect
       style="fill:#0000ff;fill-rule:evenodd;stroke:#000000;stroke-width:1px;stroke-linecap:butt;stroke-linejoin:miter;stroke-opacity:1"
       id="rect3010"
       width="255"
       height="255.71428"
       x="0.71428573"
       y="0.9999997"
       transform="translate(0,796.36218)" />
    <path
       style="fill:#000000;fill-opacity:1;fill-rule:nonzero;stroke:none"
       id="path3014"
       d="m 8.5375347,108.60281 c 2.1698903,0.0451 4.3405633,0.0255 6.5107433,0.0161 1.609034,-0.008 3.218082,-0.0116 4.827132,-0.0135 1.428397,-0.001 2.856795,-0.001 4.285192,-0.001 1.824559,0.009 3.649139,0.0162 5.473724,0.0161 2.123789,0.003 4.247592,0.006 6.371384,0.003 1.747791,-0.005 3.495575,-0.0124 5.243371,-0.016 1.447993,-0.003 2.895987,-0.003 4.343981,-0.003 1.670398,-0.002 3.340682,0.0135 5.011084,0.0125 1.711569,-0.008 3.423116,-0.005 5.134684,-0.004 2.06553,0.008 4.131069,0.0103 6.196609,0.0141 2.232188,-0.006 4.464379,0.003 6.696565,1.5e-4 2.285199,6.8e-4 4.570396,-4.2e-4 6.855596,0.002 2.497262,0.009 4.994522,0.004 7.49179,0.006 2.42199,-0.007 4.843955,-0.003 7.265948,-0.002 2.353997,-0.005 4.707994,-1.2e-4 7.061992,-0.006 2.466791,0.0532 4.91411,0.0227 7.3677,-0.23452 2.42937,-0.26069 4.86988,-0.38433 7.31154,-0.44457 2.3477,-0.0406 4.69583,-0.0396 7.04381,-0.0378 0.37648,-6.5e-4 0.75581,0.0443 1.12945,-0.002 0.65954,-0.0816 1.28329,-0.34657 1.92893,-0.50408 0.97945,-0.23894 1.95824,-0.44166 2.95094,-0.61616 1.59277,-0.26209 3.20755,-0.30928 4.81801,-0.33233 1.35963,0.15174 2.61137,-0.14665 3.92378,-0.41356 1.30613,-0.22881 2.63498,-0.25951 3.95737,-0.28659 1.41722,-0.0817 2.80698,-0.43402 4.2269,-0.58161 1.43788,-0.12647 2.88234,-0.13611 4.32468,-0.14489 1.25973,-0.0457 2.47309,-0.43976 3.73525,-0.57949 1.37113,-0.12175 2.74894,-0.12704 4.12437,-0.13499 1.4277,-0.33162 2.87529,-0.53105 4.33727,-0.61394 1.22012,-0.17405 2.49025,0.0796 3.70679,-0.0771 0.67905,-0.0874 1.32679,-0.33863 1.99141,-0.50302 2.17075,-0.60972 4.44559,-0.57273 6.64313,-0.98755 1.91047,-0.52334 3.96926,-0.23235 5.83476,-0.85817 1.68643,-0.5317 3.37659,-1.08003 5.09214,-1.517862 1.33657,-0.347905 2.59357,-0.836811 3.97615,-1.022398 1.08878,-0.299012 2.06903,-0.871832 3.12786,-1.205244 0.77734,-0.52783 1.67821,-0.868561 2.55413,-1.204466 0,0 -8.31774,6.56463 -8.31774,6.56463 l 0,0 c -0.86355,0.39655 -1.71926,0.81111 -2.59251,1.18032 -1.03914,0.45465 -2.11148,0.84041 -3.23184,1.04272 -1.31547,0.29663 -2.5683,0.80203 -3.8904,1.07717 -1.69742,0.49627 -3.39081,1.00631 -5.09543,1.47691 -1.95363,0.29513 -3.93649,0.38624 -5.87787,0.78144 -2.20955,0.25913 -4.42872,0.46695 -6.58724,1.04013 -1.92855,0.40049 -3.87013,0.35958 -5.82882,0.49278 -1.47048,0.16098 -2.91997,0.47589 -4.39647,0.56381 -1.35458,0.023 -2.71372,0.0509 -4.05626,0.25024 -1.26262,0.2098 -2.50919,0.54886 -3.80233,0.46295 -1.42053,0.0225 -2.84397,0.0558 -4.25481,0.23808 -1.42584,0.19925 -2.83917,0.53207 -4.28701,0.5091 -1.29726,0.0571 -2.59582,0.14893 -3.86599,0.43675 -1.33004,0.26151 -2.66224,0.25624 -4.0151,0.25044 -1.56917,0.0478 -3.13991,0.14221 -4.68366,0.44709 -2.01646,0.40276 -4.0106,1.06723 -6.09096,0.94029 -2.34292,0.003 -4.68633,-4.6e-4 -7.02857,0.0647 -2.42302,0.0837 -4.843233,0.22418 -7.254497,0.48483 -2.479357,0.20142 -4.960954,0.18477 -7.447255,0.17225 -2.348551,-0.006 -4.6971,-6.5e-4 -7.045649,-0.006 -2.420438,0.002 -4.840849,0.006 -7.261283,-0.002 -2.502721,0.002 -5.005434,-0.003 -7.508149,0.006 -2.286634,0.002 -4.573265,8.9e-4 -6.859898,0.002 -2.232319,-0.003 -4.464644,0.006 -6.696965,1.5e-4 -2.078476,0.004 -4.156951,0.006 -6.235416,0.0141 -1.707992,0.001 -3.415962,0.004 -5.123954,-0.004 -1.681844,-0.001 -3.363572,0.0144 -5.045412,0.0125 -1.445313,-1.6e-4 -2.890626,-3.3e-4 -4.335937,-0.003 -1.733087,-0.004 -3.466162,-0.0105 -5.199243,-0.016 -2.126451,-0.003 -4.252914,2e-4 -6.379363,0.003 -1.83936,-7e-5 -3.678716,0.007 -5.518052,0.0161 -1.427386,2e-5 -2.854772,1.5e-4 -4.282157,-0.001 -1.5967017,-0.002 -3.1934008,-0.006 -4.7900855,-0.0134 -2.1849392,-0.01 -4.3703324,-0.0285 -6.55499808,0.0161 0,0 8.56515828,-6.22295 8.56515828,-6.22295 z"
       inkscape:connector-curvature="0"
       transform="translate(0,796.36218)" />
    <path
       style="fill:#000000;fill-opacity:1;fill-rule:nonzero;stroke:none"
       id="path3016"
       d="m 34.966106,172.88852 c 2.444351,0.0371 4.88945,0.0397 7.334106,0.0357 3.108588,0.009 6.21718,0.0167 9.325786,0.0189 3.896816,0.008 7.793606,0.0126 11.690384,0.0313 6.048086,-0.17748 12.062166,0.30496 18.087369,0.73934 7.075854,0.50331 14.169652,0.63512 21.260489,0.71978 7.21593,-0.15636 14.3547,0.96203 21.49977,1.78142 7.10879,0.78384 14.26196,0.96194 21.40667,1.07573 7.1407,0.0786 14.28201,0.0619 21.42302,0.0563 7.14286,-0.007 14.28573,-0.0111 21.42859,-0.0133 7.14289,-0.002 14.28578,-0.002 21.42866,-0.002 5.34342,-0.0162 10.68669,-0.0615 16.03009,-0.0798 3.6058,0.0975 7.23838,-0.26317 10.82259,0.19047 3.00083,0.50422 6.01777,0.87414 9.0541,1.06717 1.34705,0.1604 2.72362,-0.009 4.07014,0.1204 1.28201,0.12298 2.58084,0.48911 3.84206,0.74418 1.42466,0.28321 2.86788,0.43976 4.31371,0.56051 0,0 -8.58324,6.1064 -8.58324,6.1064 l 0,0 c -1.45362,-0.16904 -2.90254,-0.37523 -4.33603,-0.67433 -2.58902,-0.52814 -5.17006,-0.74132 -7.8136,-0.76969 -3.02472,-0.24435 -6.0207,-0.70056 -9.02397,-1.12677 -3.55694,-0.27366 -7.13157,-0.0724 -10.69624,-0.15136 -5.27007,-0.0184 -10.54,-0.0639 -15.81009,-0.08 -7.14282,7e-5 -14.28565,9e-5 -21.42848,0.002 -7.14278,0.002 -14.28557,0.007 -21.42835,0.0136 -7.14448,0.005 -14.28936,0.0209 -21.43341,-0.0709 -7.16401,-0.12996 -14.3356,-0.33865 -21.46017,-1.15886 -7.12339,-0.83317 -14.24798,-1.85661 -21.442147,-1.6958 -7.110702,-0.0946 -14.223378,-0.24673 -21.319109,-0.74911 -6.069846,-0.41742 -12.132825,-0.78242 -18.221174,-0.55452 -3.925515,0.0186 -7.85104,0.0232 -11.77659,0.0313 -3.125955,0.002 -6.251895,0.0101 -9.377831,0.0189 -2.47738,-0.004 -4.95517,-8.2e-4 -7.432261,0.0357 0,0 8.565158,-6.22296 8.565158,-6.22296 z"
       inkscape:connector-curvature="0"
       transform="translate(0,796.36218)" />
    <path
       style="fill:#000000;fill-opacity:1;fill-rule:nonzero;stroke:none"
       id="path3018"
       d="m 67.78383,43.46465 c 2.572014,-0.349477 5.187211,-0.203276 7.7349,-0.689335 3.475676,-0.742668 7.026539,-0.95419 10.567464,-1.108268 2.973825,-0.193413 5.960147,-0.0028 8.934474,-0.10873 0.837258,-0.02983 4.991822,-0.363277 5.734082,-0.421167 6.80564,-0.564184 13.633,-0.74808 20.45829,-0.867113 7.15845,-0.09543 14.31773,-0.08998 21.47666,-0.09053 7.14895,0.0023 14.2979,0.006 21.44685,0.0079 7.14299,0.0016 14.28598,0.0018 21.42897,0.0019 7.14277,6.7e-5 14.28554,1.9e-5 21.42831,-3e-6 7.06384,-0.0071 14.12773,0.01565 21.19152,-0.01404 5.0443,-0.187835 10.12845,0.254689 15.15355,-0.274393 3.26134,-0.507925 6.53276,-0.899554 9.82509,-1.128301 0.42085,-0.02321 0.8417,-0.04641 1.26255,-0.06962 0,0 -8.44624,6.207471 -8.44624,6.207471 l 0,0 c -0.41037,0.02234 -0.82074,0.04467 -1.23111,0.06701 -3.25355,0.23376 -6.4794,0.687419 -9.71804,1.065631 -4.99626,0.308735 -10.01201,-0.01153 -15.01487,0.06738 -7.05092,-0.02998 -14.10196,-0.0067 -21.15293,-0.01398 -7.14278,2.3e-5 -14.28556,7.7e-5 -21.42834,-1e-5 -7.143,-1.59e-4 -14.286,-3.53e-4 -21.429,-0.0022 -7.14852,-0.0022 -14.29702,-0.0064 -21.44554,-0.0083 -7.15646,0.0015 -14.31338,-0.0033 -21.46918,0.108311 -6.84186,0.138332 -13.684953,0.357712 -20.503227,0.975871 -4.942572,0.399762 -9.882849,0.495031 -14.838362,0.617675 -3.55403,0.201022 -7.095169,0.533793 -10.586798,1.255875 -2.615545,0.311501 -5.260091,0.327173 -7.865393,0.749394 0,0 8.48632,-6.328389 8.48632,-6.328389 z"
       inkscape:connector-curvature="0"
       transform="translate(0,796.36218)" />
  </g>
</svg>
